<?xml version="1.0" encoding="UTF-8" standalone="no"?>
<!-- Created with Inkscape (http://www.inkscape.org/) -->

<svg
   xmlns:dc="http://purl.org/dc/elements/1.1/"
   xmlns:cc="http://creativecommons.org/ns#"
   xmlns:rdf="http://www.w3.org/1999/02/22-rdf-syntax-ns#"
   xmlns:svg="http://www.w3.org/2000/svg"
   xmlns="http://www.w3.org/2000/svg"
   xmlns:sodipodi="http://sodipodi.sourceforge.net/DTD/sodipodi-0.dtd"
   xmlns:inkscape="http://www.inkscape.org/namespaces/inkscape"
   width="189.75978mm"
   height="176.52266mm"
   viewBox="0 0 189.75978 176.52266"
   version="1.1"
   id="svg8"
   inkscape:version="0.92.3 (2405546, 2018-03-11)"
   sodipodi:docname="LogoHV.svg">
  <defs
     id="defs2" />
  <sodipodi:namedview
     id="base"
     pagecolor="#ffffff"
     bordercolor="#666666"
     borderopacity="1.0"
     inkscape:pageopacity="0.0"
     inkscape:pageshadow="2"
     inkscape:zoom="0.62173952"
     inkscape:cx="662.93474"
     inkscape:cy="293.06871"
     inkscape:document-units="mm"
     inkscape:current-layer="layer1"
     showgrid="false"
     inkscape:window-width="1920"
     inkscape:window-height="1018"
     inkscape:window-x="-8"
     inkscape:window-y="-8"
     inkscape:window-maximized="1"
     fit-margin-top="0"
     fit-margin-left="0"
     fit-margin-right="0"
     fit-margin-bottom="0" />
  <metadata
     id="metadata5">
    <rdf:RDF>
      <cc:Work
         rdf:about="">
        <dc:format>image/svg+xml</dc:format>
        <dc:type
           rdf:resource="http://purl.org/dc/dcmitype/StillImage" />
        <dc:title></dc:title>
      </cc:Work>
    </rdf:RDF>
  </metadata>
  <g
     inkscape:label="Capa 1"
     inkscape:groupmode="layer"
     id="layer1"
     transform="translate(-12.542018,-36.748754)">
    <g
       id="g5522"
       transform="translate(-7.2344069,-32.767608)">
      <text
         transform="scale(0.9513566,1.0511306)"
         id="text16"
         y="184.22824"
         x="19.856174"
         style="font-style:normal;font-variant:normal;font-weight:normal;font-stretch:normal;font-size:105.97603607px;line-height:1.25;font-family:FrankRuehl;-inkscape-font-specification:FrankRuehl;letter-spacing:0px;word-spacing:0px;fill:#280b0b;fill-opacity:1;stroke:none;stroke-width:2.64940095"
         xml:space="preserve"><tspan
           style="font-style:normal;font-variant:normal;font-weight:normal;font-stretch:normal;font-family:FrankRuehl;-inkscape-font-specification:FrankRuehl;fill:#280b0b;fill-opacity:1;stroke-width:2.64940095"
           y="184.22824"
           x="19.856174"
           id="tspan14"
           sodipodi:role="line">V</tspan></text>
      <text
         transform="scale(0.9513566,1.0511306)"
         id="text16-4"
         y="232.46671"
         x="57.352413"
         style="font-style:normal;font-variant:normal;font-weight:normal;font-stretch:normal;font-size:105.97603607px;line-height:1.25;font-family:FrankRuehl;-inkscape-font-specification:FrankRuehl;letter-spacing:0px;word-spacing:0px;fill:#280b0b;fill-opacity:1;stroke:none;stroke-width:2.64940095"
         xml:space="preserve"><tspan
           style="font-style:normal;font-variant:normal;font-weight:normal;font-stretch:normal;font-family:FrankRuehl;-inkscape-font-specification:FrankRuehl;fill:#280b0b;fill-opacity:1;stroke-width:2.64940095"
           y="232.46671"
           x="57.352413"
           id="tspan14-3"
           sodipodi:role="line">C</tspan></text>
      <text
         transform="scale(0.9513566,1.0511306)"
         id="text16-41"
         y="184.21092"
         x="89.153404"
         style="font-style:normal;font-variant:normal;font-weight:normal;font-stretch:normal;font-size:105.97603607px;line-height:1.25;font-family:FrankRuehl;-inkscape-font-specification:FrankRuehl;letter-spacing:0px;word-spacing:0px;fill:#280b0b;fill-opacity:1;stroke:none;stroke-width:2.64940095"
         xml:space="preserve"><tspan
           style="font-style:normal;font-variant:normal;font-weight:normal;font-stretch:normal;font-family:FrankRuehl;-inkscape-font-specification:FrankRuehl;fill:#280b0b;fill-opacity:1;stroke-width:2.64940095"
           y="184.21092"
           x="89.153404"
           id="tspan14-0"
           sodipodi:role="line">M</tspan></text>
      <g
         transform="matrix(0.20908863,0,0,0.21347126,118.29409,145.15383)"
         id="g4814">
        <path
           style="fill:#800000;stroke:#000000;stroke-width:0.88913643px;stroke-linecap:butt;stroke-linejoin:miter;stroke-opacity:0"
           d="m 317.47526,-104.35853 0.10464,-3.27342 -10.7253,-1.1457 0.26162,-4.2009 10.98683,0.10909 0.36621,-2.45506 -10.04516,-4.63736 0.62786,-2.83696 10.72527,1.41848 0.52318,-2.23685 -8.89414,-5.67392 1.20334,-2.78242 9.05111,3.54622 1.9881,-3.0552 -8.05708,-6.32862 1.77886,-3.27343 8.89414,4.85558 1.93575,-2.56418 -7.21986,-7.36521 2.61582,-3.32798 7.90009,6.16495 2.1974,-2.07317 -5.598,-8.129 3.13905,-2.94609 6.95839,7.36521 2.3543,-1.69127 -4.81333,-8.72913 3.66236,-2.18229 6.01656,7.91078 2.87748,-1.47304 -3.1914,-9.16559 3.45305,-1.63671 4.761,8.8928 2.51128,-0.7638 -1.25562,-10.0385 3.50529,-0.7638 3.24367,9.11103 2.51139,-0.27278 0.47079,-9.98395 4.13324,-0.0546 1.15097,9.60205 3.13907,-0.16365 1.62186,-9.82028 3.97623,0.27278 0.2093,10.25673 2.72051,0.0546 3.13915,-9.00192 3.55759,0.70925 -1.20329,9.98394 2.61592,0.65469 4.86559,-8.94736 3.50534,1.41848 -3.24369,9.6566 2.92981,1.5276 5.80733,-8.56546 3.87152,2.72785 -4.81326,8.18357 2.04039,2.67329 7.95239,-7.96533 3.1915,2.83697 -6.43521,8.72913 1.46489,1.74583 9.05114,-5.94672 2.19737,3.21886 -6.53984,7.09243 1.3603,2.45506 8.7895,-4.41912 1.56953,2.89152 -7.5862,5.89217 1.04643,3.16431 10.30667,-3.00064 0.9941,3.49165 -8.99882,4.63735 0.57554,2.56419 10.72522,-1.36393 0.31396,3.70988 -9.20803,3.60077 -0.10464,2.12772 10.93456,0.54558 -0.10465,3.92811 -10.62068,1.09114 0.52322,2.94608 9.83591,1.80038 -0.2093,4.582798 -10.35902,-0.163656 -0.31396,1.691266 9.73117,4.310014 -0.31395,3.273421 -10.77759,-1.30937 v 2.182283 l 8.42329,5.455714 -1.20333,3.655318 -9.73124,-2.782407 -1.20329,2.073176 7.74307,6.274051 -1.98807,3.16431 -9.10338,-4.255445 -1.25566,1.582155 6.53977,7.52887 -2.40663,3.65532 -8.00472,-5.56482 -1.98807,1.36393 5.85965,8.18357 -3.19146,2.72786 -7.84774,-6.98331 -1.72652,1.47303 4.55167,8.40181 -3.29604,2.61873 -7.06295,-7.52888 -1.67418,0.7638 3.34836,8.892805 -3.9239,2.45506 -5.85969,-8.674565 -1.67419,0.54557 1.67419,9.983935 -4.13314,0.7638 -3.87158,-9.274705 -1.04633,0.16366 -0.52318,10.474955 -4.18549,-0.0546 -1.36031,-9.711175 -3.4007,0.0546 -0.88941,9.547475 -4.86559,0.0546 -0.0523,-10.093065 c 0,0 -2.61596,-0.76379 -2.77286,-0.43645 -0.15698,0.32735 -2.51129,9.602035 -2.51129,9.602035 0,0 -4.44711,-0.81835 -4.34243,-1.14569 0.10465,-0.32735 1.36031,-9.711165 1.36031,-9.711165 0,0 -2.04043,-1.2548 -2.14508,-0.8729 -0.10465,0.38189 -4.65635,9.001905 -4.65635,9.001905 l -4.02849,-2.18228 3.19139,-8.674575 -2.04042,-2.45507 -6.17353,8.56546 -3.81926,-2.34596 c 0,0 4.91791,-8.18355 4.65636,-8.45635 -0.26163,-0.27277 -1.93585,-1.69125 -1.93585,-1.69125 l -7.21995,6.9833 -3.45296,-3.21887 6.27822,-6.81963 -2.09275,-3.65533 -7.74316,6.92875 -3.29606,-4.14634 7.01066,-6.49229 c 0,0 -1.30797,-2.291388 -1.56954,-2.236832 -0.26162,0.05456 -8.84181,4.801012 -8.84181,4.801012 l -2.3543,-3.32797 8.00472,-5.67394 -1.30795,-3.273433 -9.10348,3.218873 -2.30197,-3.600769 9.62659,-4.855578 -1.0464,-2.782416 -10.35904,0.600135 -0.57553,-2.182282 9.67891,-3.437101 -0.15697,-3.109754 -10.51601,-0.218219 0.2093,-4.200894 z"
           id="path55"
           inkscape:connector-curvature="0" />
        <ellipse
           id="path57"
           cx="370.97165"
           cy="-105.87526"
           style="fill:#ffffff;stroke-width:0.92520344"
           rx="6.5816946"
           ry="6.8633194" />
        <path
           style="fill:#ffffff;stroke:#000000;stroke-width:0.89074361px;stroke-linecap:butt;stroke-linejoin:miter;stroke-opacity:0"
           d="m 339.30434,-137.36407 c 0,0 3.40237,-2.64065 7.0371,1.14797 3.81801,3.97962 11.6786,17.6787 11.6786,17.6787 0,0 3.81804,6.81127 -3.59341,8.57149 0,0 -12.65182,1.37756 -23.05775,-1.91328 -11.39442,-3.57098 5.27043,-22.75694 7.93546,-25.48488 z"
           id="path59"
           inkscape:connector-curvature="0"
           sodipodi:nodetypes="cscccc" />
        <path
           style="fill:#ffffff;stroke:#000000;stroke-width:0.88913643px;stroke-linecap:butt;stroke-linejoin:miter;stroke-opacity:0"
           d="m 357.44654,-139.92975 c 0,0 12.09452,44.918929 27.10092,2.2914"
           id="path4588"
           inkscape:connector-curvature="0"
           sodipodi:nodetypes="cc" />
        <path
           style="fill:#ffffff;stroke:#000000;stroke-width:0.88913643px;stroke-linecap:butt;stroke-linejoin:miter;stroke-opacity:0"
           d="m 357.44654,-139.92975 c 0,0 -2.59578,-10.3128 6.43094,-10.62143 8.95249,-0.3061 16.42564,-0.46293 16.42564,-0.46293 0,0 5.97299,1.29025 4.24434,13.37576"
           id="path4590"
           inkscape:connector-curvature="0"
           sodipodi:nodetypes="cscc" />
        <path
           style="fill:#ffffff;stroke:#000000;stroke-width:0.88913643px;stroke-linecap:butt;stroke-linejoin:miter;stroke-opacity:0"
           d="m 390.06967,-129.10198 c 0,0 -22.49268,22.83799 9.4707,19.75177 0,0 19.93905,-0.39487 13.46609,-14.3509 -4.83967,-10.43447 -8.73076,-13.73365 -8.73076,-13.73365 0,0 -3.8476,-6.78967 -14.20603,8.33278 z"
           id="path4592"
           inkscape:connector-curvature="0"
           sodipodi:nodetypes="ccscc" />
        <path
           style="fill:#ffffff;stroke:#000000;stroke-width:0.88913643px;stroke-linecap:butt;stroke-linejoin:miter;stroke-opacity:0"
           d="m 339.7569,-101.63468 c 0,0 35.92968,-8.63823 13.76209,18.054362 0,0 -10.21058,17.591428 -18.34941,5.246567 l -6.36308,-13.733656 c 0,0 -2.81167,-9.412963 10.9504,-9.567273 z"
           id="path4594"
           inkscape:connector-curvature="0"
           sodipodi:nodetypes="ccccc" />
        <path
           style="fill:#ffffff;stroke:#000000;stroke-width:0.88913643px;stroke-linecap:butt;stroke-linejoin:miter;stroke-opacity:0"
           d="m 360.47399,-78.17944 c 0,0 9.76658,-32.71388 19.97706,-0.925864 0,0 12.57824,18.054344 -3.55145,18.054344 0,0 -11.69031,2.93192 -16.86957,-1.6974 0,0 -6.659,-2.00603 0.44396,-15.43108 z"
           id="path4596"
           inkscape:connector-curvature="0"
           sodipodi:nodetypes="ccccc" />
        <path
           style="fill:#ffffff;stroke:#000000;stroke-width:0.88913643px;stroke-linecap:butt;stroke-linejoin:miter;stroke-opacity:0"
           d="m 400.4282,-102.09761 c 0,0 -32.38989,-7.79048 -10.50642,19.443157"
           id="path4598"
           inkscape:connector-curvature="0" />
        <path
           style="fill:#ffffff;stroke:#000000;stroke-width:0.88913643px;stroke-linecap:butt;stroke-linejoin:miter;stroke-opacity:0"
           d="m 389.92178,-82.654453 c 1.33861,0.126902 7.78397,16.435513 17.3135,4.475013 5.68491,-8.574673 10.64767,-22.2016 0.88788,-22.68368 l -7.69496,-1.23449"
           id="path4602"
           inkscape:connector-curvature="0"
           sodipodi:nodetypes="cccc" />
      </g>
      <g
         transform="matrix(0.34224624,0,0,0.34649933,110.4445,54.876877)"
         id="g4748">
        <path
           style="fill:#000080;stroke:#000000;stroke-width:0.26458332px;stroke-linecap:butt;stroke-linejoin:miter;stroke-opacity:1"
           d="m 263.37537,116.7033 -1.54451,4.74001 0.6391,0.74562 3.94113,-3.19551 1.43799,1.65101 -2.71619,4.10091 0.53258,0.74562 4.68675,-1.65101 1.01192,2.02382 -3.99438,3.14225 0.21301,0.79888 5.05958,-0.0533 0.37279,2.13034 -4.68675,1.65102 -0.10649,0.79888 4.58023,1.43798 -0.15978,2.39663 -4.95306,-0.10652 -0.42605,0.9054 4.20743,3.03573 -1.22495,1.97057 -4.68677,-1.75753 -0.42606,0.53258 2.76945,4.47372 -1.33147,1.59776 -4.15417,-3.089 -0.69236,0.42607 1.59777,4.68675 -1.91731,1.27821 -3.03574,-4.04765 -0.85215,0.15977 0.21304,5.11282 -2.44988,0.37281 -1.75755,-5.0063 -0.74562,0.21304 -1.49122,4.84652 -2.39665,-0.31955 0.10653,-5.16608 -0.58584,-0.31955 -3.08902,4.15417 -2.02382,-1.27821 1.59777,-4.63349 -0.6391,-0.58584 -3.88787,3.19551 -1.9173,-1.81079 2.9292,-3.99439 -0.53258,-0.85214 -4.52697,1.65102 -1.17168,-1.8108 4.2074,-2.98247 -0.26627,-0.9054 -5.21936,0.10652 -0.31954,-2.34338 5.00632,-1.54449 -0.15979,-1.01192 -4.68675,-1.43798 0.26628,-2.13034 5.11284,-0.10651 0.15975,-0.63911 -3.99439,-3.30203 0.95867,-1.86404 5.00631,1.86404 0.42606,-0.69236 -3.14224,-4.47371 1.59774,-1.43798 4.20743,2.98247 0.69236,-0.37281 -1.65103,-4.89978 2.13035,-1.17169 2.76944,4.47372 0.90541,-0.10652 0.0533,-5.59215 2.02382,-0.47932 1.59774,5.05956 0.90541,0.10652 1.59776,-5.11283 2.07709,0.2663 0.15975,5.27259 0.79889,0.53259 3.03574,-4.3672 z"
           id="path4606"
           inkscape:connector-curvature="0" />
        <circle
           style="fill:#ffffff;stroke:#000000;stroke-width:0.26692936;stroke-opacity:0"
           id="path4604"
           cx="253.30737"
           cy="133.84845"
           r="10.866535" />
      </g>
      <g
         transform="matrix(0.54451702,0,0,0.55748012,83.179363,75.466318)"
         id="g4760">
        <path
           style="fill:#00ffff;stroke:#000000;stroke-width:0.68391973px;stroke-linecap:butt;stroke-linejoin:miter;stroke-opacity:0"
           d="m 106.29253,40.50568 0.0805,-2.517725 -8.250417,-0.881205 0.20125,-3.23109 8.451597,0.08391 0.28171,-1.888291 -7.727221,-3.566789 0.482978,-2.182026 8.250393,1.091014 0.40247,-1.720456 -6.84181,-4.364052 0.92567,-2.140076 6.96255,2.727548 1.52935,-2.349884 -6.1979,-4.867608 1.36838,-2.517734 6.84181,3.734632 1.48907,-1.972219 -5.55386,-5.6648927 2.01221,-2.5596903 6.07714,4.741723 1.69035,-1.5945623 -4.30627,-6.252357 2.41472,-2.26596202 5.35274,5.66489352 1.81104,-1.3008267 -3.70266,-6.7139424 2.81727,-1.6784916 4.62825,6.0845145 2.21348,-1.1329764 -2.45498,-7.0496422 2.65626,-1.2588629 3.66239,6.83982822 1.93181,-0.58747043 -0.96588,-7.72103469 2.69643,-0.5874704 2.49519,7.0076769 1.93189,-0.2098062 0.36215,-7.6790771 3.17948,-0.041997 0.88539,7.3852989 2.41473,-0.1258704 1.24761,-7.5531485 3.0587,0.209806 0.16101,7.8888408 2.09275,0.041997 2.41479,-6.9237556 2.73667,0.5455136 -0.92563,7.67906943 2.01231,0.50354993 3.74283,-6.88179196 2.69649,1.0910127 -2.49521,7.4272979 2.25375,1.1749424 4.46729,-6.5880567 2.97817,2.0981041 -3.70261,6.2943284 1.56956,2.0561411 6.11738,-6.12647198 2.45506,2.18203378 -4.95028,6.7139417 1.12687,1.3428344 6.96258,-4.5739156 1.69032,2.4757613 -5.03076,5.4551293 1.04641,1.88829 6.76131,-3.398932 1.20736,2.22399 -5.83568,4.531917 0.80496,2.433805 7.9284,-2.307921 0.76472,2.685576 -6.92234,3.566781 0.44274,1.972227 8.25036,-1.049056 0.24151,2.853425 -7.08326,2.769504 -0.0805,1.63652 8.4114,0.419629 -0.0805,3.021275 -8.16994,0.839241 0.40249,2.265954 7.56626,1.38475 -0.16101,3.524822 -7.96866,-0.125876 -0.24151,1.300825 7.48569,3.315015 -0.24151,2.517724 -8.29064,-1.007091 v 1.678486 l 6.4796,4.196219 -0.92566,2.811461 -7.48575,-2.140069 -0.92563,1.594568 5.95635,4.825637 -1.52932,2.433808 -7.00276,-3.273046 -0.96591,1.216901 5.0307,5.790777 -1.8513,2.811461 -6.15762,-4.280138 -1.52932,1.049056 4.50754,6.294329 -2.45504,2.098112 -6.03687,-5.371159 -1.32812,1.132962 3.50138,6.462194 -2.53549,2.014176 -5.43316,-5.790779 -1.28786,0.587463 2.57573,6.839835 -3.01846,1.88829 -4.50756,-6.671977 -1.28788,0.419628 1.28788,7.679062 -3.17942,0.58747 -2.9782,-7.133562 -0.8049,0.125878 -0.40246,8.056725 -3.21967,-0.042 -1.04642,-7.46927 -2.61599,0.042 -0.68417,7.34337 -3.74285,0.042 -0.0402,-7.763006 c 0,0 -2.01234,-0.587455 -2.13303,-0.335684 -0.12075,0.251778 -1.9318,7.385326 -1.9318,7.385326 0,0 -3.42094,-0.629428 -3.34041,-0.881198 0.0805,-0.251779 1.04641,-7.469263 1.04641,-7.469263 0,0 -1.5696,-0.96512 -1.6501,-0.671384 -0.0805,0.293728 -3.58189,6.923741 -3.58189,6.923741 l -3.09892,-1.678484 2.45499,-6.671978 -1.5696,-1.888305 -4.74897,6.588057 -2.93797,-1.804378 c 0,0 3.78309,-6.294305 3.5819,-6.504127 -0.20126,-0.209807 -1.48915,-1.300812 -1.48915,-1.300812 l -5.55394,5.371143 -2.65619,-2.475761 4.82951,-5.245265 -1.60984,-2.811468 -5.95642,5.329194 -2.53548,-3.189133 5.39293,-4.99349 c 0,0 -1.00615,-1.762402 -1.20737,-1.720442 -0.20125,0.04197 -6.80155,3.692657 -6.80155,3.692657 l -1.81104,-2.559677 6.15763,-4.364069 -1.00614,-2.517735 -7.00284,2.475771 -1.7708,-2.769501 7.40525,-3.73463 -0.80495,-2.140074 -7.968673,0.461588 -0.442722,-1.678484 7.445485,-2.643619 -0.12075,-2.391843 -8.089423,-0.167841 0.161004,-3.231086 z"
           id="path55-1"
           inkscape:connector-curvature="0" />
        <ellipse
           id="path57-7"
           cx="147.44458"
           cy="39.3391"
           style="fill:#ffffff;stroke-width:0.71166235"
           rx="5.0629611"
           ry="5.2788682" />
        <path
           style="fill:#ffffff;stroke:#000000;stroke-width:0.68515599px;stroke-linecap:butt;stroke-linejoin:miter;stroke-opacity:0"
           d="m 123.08454,15.119728 c 0,0 2.61726,-2.031036 5.41327,0.882952 2.937,3.060893 8.98375,13.597434 8.98375,13.597434 0,0 2.93703,5.238835 -2.76423,6.592695 0,0 -9.73239,1.059538 -17.73715,-1.471585 -8.76514,-2.746592 4.05428,-17.503322 6.10436,-19.601496 z"
           id="path59-4"
           inkscape:connector-curvature="0"
           sodipodi:nodetypes="cscccc" />
        <path
           style="fill:#ffffff;stroke:#000000;stroke-width:0.68391973px;stroke-linecap:butt;stroke-linejoin:miter;stroke-opacity:0"
           d="m 137.04039,13.146356 c 0,0 9.3037,34.549043 20.84736,1.762413"
           id="path4588-1"
           inkscape:connector-curvature="0"
           sodipodi:nodetypes="cc" />
        <path
           style="fill:#ffffff;stroke:#000000;stroke-width:0.68391973px;stroke-linecap:butt;stroke-linejoin:miter;stroke-opacity:0"
           d="m 137.04039,13.146356 c 0,0 -1.9968,-7.9320105 4.947,-8.1693894 6.88669,-0.2354354 12.63541,-0.3560603 12.63541,-0.3560603 0,0 4.59471,0.9923868 3.26495,10.2878627"
           id="path4590-9"
           inkscape:connector-curvature="0"
           sodipodi:nodetypes="cscc" />
        <path
           style="fill:#ffffff;stroke:#000000;stroke-width:0.68391973px;stroke-linecap:butt;stroke-linejoin:miter;stroke-opacity:0"
           d="m 162.1357,21.474449 c 0,0 -17.30246,17.565661 7.28532,15.19192 0,0 15.33811,-0.303711 10.35879,-11.037882 -3.72291,-8.025592 -6.71613,-10.563129 -6.71613,-10.563129 0,0 -2.95977,-5.2222224 -10.92798,6.409091 z"
           id="path4592-4"
           inkscape:connector-curvature="0"
           sodipodi:nodetypes="ccscc" />
        <path
           style="fill:#ffffff;stroke:#000000;stroke-width:0.68391973px;stroke-linecap:butt;stroke-linejoin:miter;stroke-opacity:0"
           d="m 123.43265,42.600708 c 0,0 27.63889,-6.644026 10.58649,13.886371 0,0 -7.85449,13.530312 -14.11527,4.035355 l -4.89479,-10.563133 c 0,0 -2.16288,-7.239906 8.42357,-7.358593 z"
           id="path4594-1"
           inkscape:connector-curvature="0"
           sodipodi:nodetypes="ccccc" />
        <path
           style="fill:#ffffff;stroke:#000000;stroke-width:0.68391973px;stroke-linecap:butt;stroke-linejoin:miter;stroke-opacity:0"
           d="m 139.36926,60.641123 c 0,0 7.51293,-25.161626 15.36732,-0.712121 0,0 9.67582,13.886359 -2.73194,13.886359 0,0 -8.99276,2.255064 -12.9769,-1.305542 0,0 -5.12243,-1.542922 0.34152,-11.868696 z"
           id="path4596-6"
           inkscape:connector-curvature="0"
           sodipodi:nodetypes="ccccc" />
        <path
           style="fill:#ffffff;stroke:#000000;stroke-width:0.68391973px;stroke-linecap:butt;stroke-linejoin:miter;stroke-opacity:0"
           d="m 170.10399,42.244649 c 0,0 -24.91588,-5.991986 -8.08204,14.954552"
           id="path4598-7"
           inkscape:connector-curvature="0" />
        <path
           style="fill:#ffffff;stroke:#000000;stroke-width:0.68391973px;stroke-linecap:butt;stroke-linejoin:miter;stroke-opacity:0"
           d="m 162.02195,57.199201 c 1.02971,0.09761 5.98781,12.641249 13.31838,3.441922 4.37312,-6.595144 8.19072,-17.076186 0.683,-17.446975 l -5.91934,-0.949499"
           id="path4602-2"
           inkscape:connector-curvature="0"
           sodipodi:nodetypes="cccc" />
      </g>
      <path
         inkscape:connector-curvature="0"
         id="path4606-8"
         d="m 192.08895,136.5695 -1.05762,3.28904 0.43763,0.51738 2.6987,-2.21733 0.98466,1.14562 -1.85991,2.84558 0.36469,0.51738 3.20925,-1.14562 0.69292,1.4043 -2.73516,2.18038 0.14586,0.55433 3.46455,-0.037 0.25527,1.47822 -3.20926,1.14562 -0.0729,0.55434 3.13633,0.9978 -0.10942,1.663 -3.39161,-0.0739 -0.29175,0.62825 2.88106,2.10646 -0.83879,1.36736 -3.20928,-1.21953 -0.29174,0.36955 1.89638,3.10426 -0.91172,1.10868 -2.84458,-2.14343 -0.47409,0.29564 1.09407,3.25209 -1.31288,0.88694 -2.07873,-2.80863 -0.58351,0.11087 0.14588,3.54773 -1.67755,0.2587 -1.2035,-3.47383 -0.51056,0.14783 -1.02111,3.36294 -1.64111,-0.22173 0.0729,-3.58468 -0.40116,-0.22174 -2.11521,2.88254 -1.38581,-0.88694 1.09407,-3.21513 -0.43762,-0.40651 -2.66222,2.21734 -1.31288,-1.25649 2.00577,-2.77167 -0.36468,-0.59129 -3.09985,1.14563 -0.80231,-1.2565 2.88102,-2.0695 -0.18233,-0.62825 -3.57396,0.0739 -0.21881,-1.62605 3.42809,-1.0717 -0.10942,-0.70216 -3.20925,-0.9978 0.18233,-1.47822 3.50102,-0.0739 0.10939,-0.44347 -2.73516,-2.29125 0.65645,-1.29344 3.42808,1.29344 0.29174,-0.48042 -2.15165,-3.10426 1.09406,-0.9978 2.88104,2.0695 0.47409,-0.25869 -1.13054,-3.3999 1.45876,-0.81303 1.89638,3.10427 0.61998,-0.0739 0.0365,-3.88034 1.38582,-0.33259 1.09405,3.51078 0.61998,0.0739 1.09407,-3.54774 1.42229,0.18478 0.1094,3.6586 0.54703,0.36955 2.07873,-3.03035 z"
         style="fill:#ff0000;stroke:#000000;stroke-width:0.18237874px;stroke-linecap:butt;stroke-linejoin:miter;stroke-opacity:0" />
      <ellipse
         ry="7.540174"
         rx="7.4408813"
         cy="148.46634"
         cx="185.1949"
         id="path4604-0"
         style="fill:#ffffff;stroke:#000000;stroke-width:0.18399589;stroke-opacity:0" />
      <path
         inkscape:connector-curvature="0"
         id="path55-15"
         d="m 154.91831,141.38817 0.0154,-0.49088 -1.57206,-0.1718 0.0384,-0.62995 1.61041,0.0163 0.0536,-0.36815 -1.47237,-0.6954 0.092,-0.42543 1.57206,0.21271 0.0767,-0.33543 -1.30366,-0.85084 0.17638,-0.41724 1.32666,0.53178 0.29141,-0.45815 -1.18097,-0.94902 0.26074,-0.49087 1.30366,0.72812 0.28374,-0.38451 -1.05826,-1.10447 0.38341,-0.49905 1.15797,0.92448 0.32208,-0.31089 -0.82053,-1.219 0.46011,-0.44178 1.01993,1.10446 0.34508,-0.25362 -0.70551,-1.30899 0.5368,-0.32725 0.88189,1.18628 0.42176,-0.2209 -0.46778,-1.37444 0.50613,-0.24543 0.69785,1.33353 0.36809,-0.11454 -0.18404,-1.50534 0.51379,-0.11453 0.47544,1.36625 0.36811,-0.0409 0.069,-1.49717 0.60584,-0.008 0.1687,1.43989 0.46011,-0.0245 0.23773,-1.47262 0.58281,0.0409 0.0307,1.53807 0.39876,0.008 0.46012,-1.3499 0.52146,0.10636 -0.17638,1.49716 0.38343,0.0982 0.71318,-1.34172 0.51379,0.21271 -0.47544,1.44807 0.42944,0.22907 0.85121,-1.28444 0.56747,0.40905 -0.70551,1.22719 0.29907,0.40087 1.16563,-1.19445 0.4678,0.42542 -0.94324,1.30899 0.21471,0.26181 1.32668,-0.89176 0.32207,0.48269 -0.95858,1.06356 0.19939,0.36815 1.28832,-0.66267 0.23006,0.4336 -1.11195,0.88357 0.15338,0.47451 1.5107,-0.44997 0.14571,0.5236 -1.319,0.6954 0.0844,0.38452 1.57205,-0.20453 0.046,0.55632 -1.34966,0.53996 -0.0154,0.31906 1.60274,0.0818 -0.0154,0.58904 -1.55673,0.16363 0.0767,0.44179 1.44169,0.26997 -0.0307,0.68723 -1.51838,-0.0245 -0.046,0.25361 1.42635,0.64632 -0.046,0.49087 -1.57974,-0.19635 v 0.32725 l 1.23465,0.81812 -0.17638,0.54814 -1.42636,-0.41724 -0.17637,0.31088 1.13494,0.94084 -0.2914,0.47451 -1.33433,-0.63813 -0.18406,0.23725 0.95858,1.12901 -0.35276,0.54814 -1.17329,-0.83448 -0.2914,0.20453 0.85887,1.22718 -0.46778,0.40906 -1.15029,-1.04719 -0.25307,0.22088 0.66717,1.25991 -0.48312,0.3927 -1.03525,-1.12901 -0.2454,0.11454 0.49079,1.33354 -0.57515,0.36815 -0.85888,-1.30081 -0.2454,0.0818 0.2454,1.49716 -0.60582,0.11453 -0.56748,-1.3908 -0.15336,0.0245 -0.0767,1.5708 -0.61349,-0.008 -0.19939,-1.45626 -0.49846,0.008 -0.13037,1.43171 -0.71317,0.008 -0.008,-1.51352 c 0,0 -0.38344,-0.11454 -0.40644,-0.0654 -0.023,0.0491 -0.3681,1.43989 -0.3681,1.43989 0,0 -0.65183,-0.12272 -0.63649,-0.1718 0.0154,-0.0491 0.19939,-1.45626 0.19939,-1.45626 0,0 -0.29907,-0.18817 -0.31441,-0.1309 -0.0154,0.0573 -0.68251,1.3499 -0.68251,1.3499 l -0.59048,-0.32725 0.46778,-1.30081 -0.29908,-0.36815 -0.90488,1.28445 -0.55981,-0.3518 c 0,0 0.72085,-1.22717 0.68251,-1.26808 -0.0384,-0.0409 -0.28375,-0.25361 -0.28375,-0.25361 l -1.05827,1.04718 -0.50612,-0.48269 0.92024,-1.02264 -0.30675,-0.54815 -1.13496,1.03901 -0.48311,-0.62177 1.02758,-0.97356 c 0,0 -0.19171,-0.3436 -0.23005,-0.33543 -0.0384,0.008 -1.296,0.71994 -1.296,0.71994 l -0.34508,-0.49905 1.1733,-0.85084 -0.19171,-0.49088 -1.33435,0.4827 -0.33741,-0.53996 1.41102,-0.72813 -0.15338,-0.41724 -1.51838,0.09 -0.0844,-0.32724 1.41869,-0.51542 -0.023,-0.46633 -1.54139,-0.0327 0.0307,-0.62996 z"
         style="fill:#ffff00;stroke:#000000;stroke-width:0.1318202px;stroke-linecap:butt;stroke-linejoin:miter;stroke-opacity:0" />
      <ellipse
         ry="1.0292011"
         rx="0.96471453"
         style="fill:#ffffff;stroke-width:0.13716736"
         cy="141.16072"
         cx="162.75955"
         id="path57-9" />
      <path
         sodipodi:nodetypes="cscccc"
         inkscape:connector-curvature="0"
         id="path59-8"
         d="m 158.11791,136.43876 c 0,0 0.49871,-0.39598 1.03146,0.17215 0.55963,0.59677 1.7118,2.65104 1.7118,2.65104 0,0 0.55963,1.0214 -0.52671,1.28535 0,0 -1.85444,0.20658 -3.37969,-0.28691 -1.67015,-0.53549 0.77251,-3.41255 1.16314,-3.82163 z"
         style="fill:#ffffff;stroke:#000000;stroke-width:0.13205849px;stroke-linecap:butt;stroke-linejoin:miter;stroke-opacity:0" />
      <path
         sodipodi:nodetypes="cc"
         inkscape:connector-curvature="0"
         id="path4588-0"
         d="m 160.77711,136.05402 c 0,0 1.77275,6.7359 3.97232,0.34361"
         style="fill:#ffffff;stroke:#000000;stroke-width:0.1318202px;stroke-linecap:butt;stroke-linejoin:miter;stroke-opacity:0" />
      <path
         sodipodi:nodetypes="cscc"
         inkscape:connector-curvature="0"
         id="path4590-3"
         d="m 160.77711,136.05402 c 0,0 -0.38048,-1.54647 0.94262,-1.59276 1.31221,-0.0459 2.40759,-0.0694 2.40759,-0.0694 0,0 0.87549,0.19347 0.62211,2.00578"
         style="fill:#ffffff;stroke:#000000;stroke-width:0.1318202px;stroke-linecap:butt;stroke-linejoin:miter;stroke-opacity:0" />
      <path
         sodipodi:nodetypes="ccscc"
         inkscape:connector-curvature="0"
         id="path4592-6"
         d="m 165.55886,137.67772 c 0,0 -3.29688,3.42471 1.38817,2.96191 0,0 2.92257,-0.0592 1.9738,-2.15202 -0.70938,-1.56472 -1.27972,-2.05945 -1.27972,-2.05945 0,0 -0.56396,-1.01815 -2.08225,1.24956 z"
         style="fill:#ffffff;stroke:#000000;stroke-width:0.1318202px;stroke-linecap:butt;stroke-linejoin:miter;stroke-opacity:0" />
      <path
         sodipodi:nodetypes="ccccc"
         inkscape:connector-curvature="0"
         id="path4594-3"
         d="m 158.18424,141.79663 c 0,0 5.26641,-1.29537 2.01719,2.70737 0,0 -1.49662,2.63795 -2.68957,0.78675 l -0.93267,-2.05945 c 0,0 -0.41213,-1.41153 1.60505,-1.43467 z"
         style="fill:#ffffff;stroke:#000000;stroke-width:0.1318202px;stroke-linecap:butt;stroke-linejoin:miter;stroke-opacity:0" />
      <path
         sodipodi:nodetypes="ccccc"
         inkscape:connector-curvature="0"
         id="path4596-3"
         d="m 161.22086,145.3139 c 0,0 1.43154,-4.90567 2.92815,-0.13884 0,0 1.84365,2.70737 -0.52056,2.70737 0,0 -1.71351,0.43966 -2.47266,-0.25454 0,0 -0.97605,-0.30082 0.0651,-2.31399 z"
         style="fill:#ffffff;stroke:#000000;stroke-width:0.1318202px;stroke-linecap:butt;stroke-linejoin:miter;stroke-opacity:0" />
      <path
         inkscape:connector-curvature="0"
         id="path4598-3"
         d="m 167.07716,141.72721 c 0,0 -4.74755,-1.16824 -1.53998,2.91563"
         style="fill:#ffffff;stroke:#000000;stroke-width:0.1318202px;stroke-linecap:butt;stroke-linejoin:miter;stroke-opacity:0" />
      <path
         sodipodi:nodetypes="cccc"
         inkscape:connector-curvature="0"
         id="path4602-0"
         d="m 165.53718,144.64284 c 0.1962,0.019 1.14093,2.46461 2.53773,0.67106 0.83327,-1.28583 1.56069,-3.32928 0.13014,-3.40158 l -1.12789,-0.18511"
         style="fill:#ffffff;stroke:#000000;stroke-width:0.1318202px;stroke-linecap:butt;stroke-linejoin:miter;stroke-opacity:0" />
      <path
         inkscape:connector-curvature="0"
         id="path4606-7"
         d="m 180.17305,124.02282 -0.5286,1.64241 0.21872,0.25836 1.34884,-1.10724 0.49215,0.57207 -0.92961,1.42096 0.18228,0.25836 1.60402,-0.57207 0.34632,0.70125 -1.36706,1.08879 0.0729,0.27681 1.73163,-0.0185 0.12758,0.73816 -1.60402,0.57208 -0.0365,0.27681 1.56757,0.49826 -0.0547,0.83043 -1.69517,-0.0369 -0.14581,0.31372 1.43997,1.05188 -0.41923,0.6828 -1.60403,-0.60898 -0.14582,0.18454 0.94784,1.55014 -0.45569,0.55362 -1.42175,-1.07034 -0.23696,0.14764 0.54683,1.62395 -0.65619,0.4429 -1.03897,-1.40251 -0.29165,0.0554 0.0729,1.77159 -0.83846,0.12918 -0.60151,-1.73468 -0.25519,0.0738 -0.51036,1.67932 -0.82025,-0.11073 0.0365,-1.79004 -0.2005,-0.11073 -1.0572,1.43942 -0.69265,-0.4429 0.54683,-1.6055 -0.21873,-0.20299 -1.33061,1.10724 -0.65619,-0.62744 1.00251,-1.38405 -0.18227,-0.29527 -1.54934,0.57208 -0.401,-0.62744 1.43996,-1.03342 -0.0911,-0.31372 -1.7863,0.0369 -0.10936,-0.81197 1.71339,-0.53517 -0.0547,-0.35063 -1.60402,-0.49826 0.0911,-0.73816 1.74985,-0.0369 0.0547,-0.22145 -1.36707,-1.14415 0.3281,-0.64589 1.71339,0.64589 0.14582,-0.2399 -1.07542,-1.55014 0.54682,-0.49826 1.43998,1.03343 0.23696,-0.12918 -0.56506,-1.69777 0.7291,-0.40599 0.94783,1.55014 0.30988,-0.0369 0.0182,-1.93768 0.69264,-0.16608 0.54682,1.75313 0.30988,0.0369 0.54682,-1.77159 0.71088,0.0923 0.0547,1.82695 0.27342,0.18455 1.03897,-1.51324 z"
         style="fill:#ff00ff;stroke:#000000;stroke-width:0.09111356px;stroke-linecap:butt;stroke-linejoin:miter;stroke-opacity:0" />
      <ellipse
         ry="3.7652471"
         rx="3.7190309"
         cy="129.96361"
         cx="176.72731"
         id="path4604-6"
         style="fill:#ffffff;stroke:#000000;stroke-width:0.09192146;stroke-opacity:0" />
      <text
         transform="matrix(0.94625622,-0.17468137,0.19369892,1.0210389,0,0)"
         id="text4897"
         y="226.75493"
         x="86.090111"
         style="font-style:normal;font-variant:normal;font-weight:normal;font-stretch:normal;font-size:18.64866829px;line-height:1.25;font-family:'Tempus Sans ITC';-inkscape-font-specification:'Tempus Sans ITC';letter-spacing:0px;word-spacing:0px;fill:#ff00ff;fill-opacity:1;stroke:none;stroke-width:0.46621671"
         xml:space="preserve"><tspan
           style="font-style:normal;font-variant:normal;font-weight:normal;font-stretch:normal;font-family:'Tempus Sans ITC';-inkscape-font-specification:'Tempus Sans ITC';fill:#ff00ff;fill-opacity:1;stroke-width:0.46621671"
           y="226.75493"
           x="86.090111"
           id="tspan4895"
           sodipodi:role="line">DISEÑO</tspan></text>
      <path
         inkscape:connector-curvature="0"
         d="m 60.509967,222.81675 c 7.870399,-4.09181 15.876463,-7.91953 23.828203,-11.85055 2.248471,-1.12521 4.49694,-2.25042 6.745409,-3.37564 0,0 -4.033115,3.22665 -4.033115,3.22665 v 0 c -2.259759,1.13346 -4.51952,2.26691 -6.779279,3.40036 -8.248748,4.11416 -16.543099,8.14676 -24.660066,12.5178 0,0 4.898848,-3.91862 4.898848,-3.91862 z"
         id="path5397"
         style="fill:#00ff00;fill-opacity:1;stroke:#000000;stroke-width:0.26458332;stroke-opacity:0" />
      <path
         inkscape:connector-curvature="0"
         d="m 54.342257,222.39938 c 3.869396,-2.33161 7.781983,-4.59737 11.787687,-6.68895 1.226659,-0.6405 2.52239,-1.13898 3.783584,-1.70848 0,0 -4.466053,3.54902 -4.466053,3.54902 v 0 c -10.744162,5.04329 -1.522158,0.92117 -1.78517,0.47856 -0.02564,-0.0431 -3.073143,1.85617 -3.483882,2.11075 0,0 -5.836166,2.2591 -5.836166,2.2591 z"
         id="path5399"
         style="fill:#00ff00;fill-opacity:1;stroke:#000000;stroke-width:0.26458332;stroke-opacity:0" />
      <path
         inkscape:connector-curvature="0"
         d="m 97.73427,156.58283 c 3.28567,-1.61078 6.82028,-2.60574 10.30144,-3.68609 0,0 -4.42799,3.43349 -4.42799,3.43349 v 0 c -3.670945,1.23067 -7.373252,2.40443 -10.832552,4.17185 0,0 4.959102,-3.91925 4.959102,-3.91925 z"
         id="path5401"
         style="fill:#00ff00;fill-opacity:1;stroke:#000000;stroke-width:0.26458332;stroke-opacity:0" />
      <path
         inkscape:connector-curvature="0"
         d="m 42.492205,133.26976 c 1.28225,-0.24587 0.559212,-0.12428 2.173639,-0.33676 0,0 -4.92868,3.70027 -4.92868,3.70027 v 0 c -1.671108,0.3069 -0.919154,0.13982 -2.261991,0.47281 0,0 5.017032,-3.83632 5.017032,-3.83632 z"
         id="path5415"
         style="fill:#00ff00;fill-opacity:1;stroke:#000000;stroke-width:0.26458332;stroke-opacity:0" />
      <path
         inkscape:connector-curvature="0"
         d="m 139.94392,191.14502 c 0.28469,-0.0324 0.56939,-0.0647 0.85409,-0.0971 0,0 -4.99011,3.74942 -4.99011,3.74942 v 0 c -0.29367,0.0613 -0.58734,0.12266 -0.88101,0.18398 0,0 5.01703,-3.83631 5.01703,-3.83631 z"
         id="path5419"
         style="fill:#00ff00;fill-opacity:1;stroke:#000000;stroke-width:0.26458332;stroke-opacity:0" />
      <path
         inkscape:connector-curvature="0"
         d="m 176.02977,189.97018 c -1.70155,-0.73169 -3.73294,-1.02837 -5.69821,-1.30407 -0.85682,-0.0549 -1.93248,-0.31271 -2.80606,-0.16536 -0.17807,0.03 -0.6453,0.22984 -0.47952,0.17792 3.529,-1.10539 3.06434,-1.84945 3.43624,-0.57507 0.60428,0.80425 0.75879,1.08998 1.67043,1.87204 2.94372,2.52528 7.36182,4.5106 11.20068,6.40854 3.37671,1.69798 6.99269,3.20268 10.25531,4.9983 1.13232,0.62318 3.03534,1.69092 3.65734,2.67026 0.25105,0.39529 0.16089,0.84916 0.24135,1.27374 -0.45112,0.44587 -0.74457,0.98008 -1.35338,1.33758 -0.96154,0.56464 -2.11828,0.97776 -3.26197,1.37264 -2.56741,0.88647 -5.1572,1.75877 -7.853,2.46506 -2.04527,0.53584 -4.19622,0.88635 -6.32861,1.25049 -6.15953,1.05183 -9.58021,1.3525 -15.93618,2.08284 -14.70014,1.41928 -29.54356,2.10132 -44.38446,2.47898 -1.2875,0.008 -2.57501,0.0151 -3.86252,0.0226 0,0 2.89595,-1.36999 2.89595,-1.36999 v 0 c 1.23507,0.0143 2.47015,0.0285 3.70523,0.0429 14.68057,-0.17062 29.36954,-0.79943 43.88723,-2.27611 6.47508,-0.77876 9.88553,-1.08777 16.15176,-2.22031 2.18831,-0.39551 4.31004,-0.93498 6.48601,-1.35845 0.62107,-0.12087 1.31011,-0.0965 1.89876,-0.27334 3.06683,-0.9214 2.7818,-0.96236 4.5107,-2.38716 -0.026,-0.39616 0.12392,-0.81438 -0.0778,-1.18846 -0.52477,-0.97289 -2.35028,-2.06066 -3.41452,-2.67959 -3.17103,-1.84416 -6.73876,-3.37468 -10.11478,-5.04705 -2.15242,-1.03138 -5.07962,-2.40303 -7.17332,-3.52065 -1.79208,-0.95663 -3.02058,-1.66889 -4.46279,-2.80672 -0.97011,-0.76538 -1.19773,-1.09159 -1.89671,-1.89077 -0.0982,-0.20231 -0.51728,-0.45189 -0.29494,-0.60694 1.02466,-0.71459 2.39093,-1.18467 3.64058,-1.72627 0.67965,-0.29457 2.61889,0.10195 3.33889,0.15761 2.0349,0.30449 4.11263,0.62438 5.91756,1.33673 0,0 -3.4952,1.4481 -3.4952,1.4481 z"
         id="path5463"
         style="fill:#00ff00;fill-opacity:1;stroke:#000000;stroke-width:0.14013511;stroke-opacity:0" />
    </g>
  </g>
</svg>
